<svg xmlns="http://www.w3.org/2000/svg" xmlns:xlink="http://www.w3.org/1999/xlink" id="Calque_1" data-name="Calque 1" viewBox="0 0 347.57 378.47" width="347.57" height="378.47"><defs>
    <style>
      .cls-1 {
        fill: url(#Dégradé_sans_nom_36-2);
      }

      .cls-2 {
        fill: url(#Dégradé_sans_nom_68);
      }

      .cls-3 {
        fill: url(#Dégradé_sans_nom_88);
      }

      .cls-4 {
        fill: url(#Dégradé_sans_nom_68-2);
      }

      .cls-5 {
        fill: url(#Dégradé_sans_nom_68-3);
      }

      .cls-6 {
        fill: url(#Dégradé_sans_nom_36);
      }
    </style>
    <linearGradient id="Dégradé_sans_nom_68" data-name="Dégradé sans nom 68" x1="129.2" y1="15.28" x2="203.59" y2="180.92" gradientUnits="userSpaceOnUse">
      <stop offset="0" stop-color="#444645"></stop>
      <stop offset=".08" stop-color="#565858"></stop>
      <stop offset=".24" stop-color="#888989"></stop>
      <stop offset=".46" stop-color="#d6d6d8"></stop>
      <stop offset=".53" stop-color="#f1f1f3"></stop>
      <stop offset=".77" stop-color="#b3b3b4"></stop>
      <stop offset="1" stop-color="#737373"></stop>
    </linearGradient>
    <linearGradient id="Dégradé_sans_nom_36" data-name="Dégradé sans nom 36" x1="231.8" y1="197.31" x2="135.24" y2="356.55" gradientUnits="userSpaceOnUse">
      <stop offset="0" stop-color="#16293a"></stop>
      <stop offset=".52" stop-color="#486b85"></stop>
      <stop offset="1" stop-color="#74a6c8"></stop>
    </linearGradient>
    <linearGradient id="Dégradé_sans_nom_68-2" data-name="Dégradé sans nom 68" x1="13.18" y1="67.39" x2="87.57" y2="233.03" xlink:href="#Dégradé_sans_nom_68"></linearGradient>
    <linearGradient id="Dégradé_sans_nom_36-2" data-name="Dégradé sans nom 36" x1="253.29" y1="210.34" x2="156.73" y2="369.58" xlink:href="#Dégradé_sans_nom_36"></linearGradient>
    <linearGradient id="Dégradé_sans_nom_68-3" data-name="Dégradé sans nom 68" x1="134.95" y1="12.7" x2="209.35" y2="178.33" xlink:href="#Dégradé_sans_nom_68"></linearGradient>
    <linearGradient id="Dégradé_sans_nom_88" data-name="Dégradé sans nom 88" x1="11.71" y1="68.05" x2="86.1" y2="233.69" gradientUnits="userSpaceOnUse">
      <stop offset="0" stop-color="#b1b0b0"></stop>
      <stop offset="0" stop-color="#a09f9f"></stop>
      <stop offset=".02" stop-color="#747574"></stop>
      <stop offset=".03" stop-color="#444645"></stop>
      <stop offset=".1" stop-color="#565858"></stop>
      <stop offset=".24" stop-color="#888989"></stop>
      <stop offset=".44" stop-color="#d6d6d8"></stop>
      <stop offset=".5" stop-color="#f1f1f3"></stop>
      <stop offset=".75" stop-color="#b3b3b4"></stop>
      <stop offset="1" stop-color="#737373"></stop>
    </linearGradient>
  </defs><path class="cls-2" d="M170.38,149.18l2.93.52,103.43-35.09c20.77,10.7,42,20.71,62.71,31.49,2.18,1.13,4.66,2.54,6.79,3.78.79.46,1.57-.18,1.26,1.69-13.98,18.74-32.94,38.38-56.09,45-30.05,8.6-59.44-5.54-89.06-9.61-37.46-5.15-73.66,2.99-106.73,20.74l-12.82,7.85c22.8-3.27,45.12-10.67,68.32-10.57l-27.92,42.34c-19.7-17.41-41.58-33.03-66.39-42.36-.29-2.51.02-1.52,1.4-1.93,29.66-8.76,39.84-32.41,38.09-62.1-.2-3.37-2.85-11.76-1.51-13.94l67.88-28.85c-14.06,23.63-29.5,46.48-49.08,65.92-.15.71,1.01.66,1.43.47,1.36-.61,16.99-15.88,19.28-18.27,33.71-35.22,51.66-80.54,82.74-115.52,6.84-7.7,29.59-28.85,39.46-29.39,5.99-.33,18.58,7.99,23.09,12.11,22.93,20.9,30.56,72.69-.09,89.36-27.56,14.99-66.28,29.19-95.96,41.67-4.28,1.8-8.65,3.49-13.16,4.65Z"></path><path class="cls-6" d="M158.34,210.79c14.62,21.97,33.14,43.67,45.88,66.71,13.77,24.91,19.93,53.87.77,78.1-39.94,50.5-119.13,10.67-101.29-54.13,8.89-32.3,37.58-62.2,54.63-90.68ZM173.57,339.43c3.83,4.2,11.46,2.35,15.57-.66,16.55-12.16,13.38-34.72,6.12-51.35l-29.69-52.59c4.37,24.34,22.37,56.84,14.7,81.59-2.35,7.59-12.97,16.14-6.7,23.01ZM181.92,357.07c-21.22,7.09-43.6-6.23-50.79-26.69-5.98-17.02-1.71-34.46,3.38-51.05l9.4-25.24c-13.57,24.49-36.56,52.38-24.32,82.05,8.28,20.08,31.7,32.18,52.69,25.24l9.63-4.31Z"></path><path class="cls-4" d="M32.53,78.22c57.34-6.22,79.32,108.58,25.47,115.94C-3.4,202.54-22.57,84.2,32.53,78.22ZM49.11,182.85c23.66,1.91,33.1-22.83,31.79-42.86-1.26-19.31-14.99-44.77-34.88-49.82C11.68,81.45,1.06,126.69,13.51,151.09c1.7.25.95-2.18.73-3.14-1.05-4.74-2.44-8.54-2.72-13.65-1.37-25.67,15.52-49.92,42.32-33.65,25.21,15.31,32.56,61.47,5.79,78.78l-10.52,3.42ZM36.34,107.05c-15.4,2.5-18.54,22.95-15.66,35.41,4.06,17.58,24.11,37.94,40.97,21.66,17.11-16.53.07-61.19-25.31-57.07Z"></path><path class="cls-1" d="M344.58,209.81c-6.45,4.65-13.61,8.75-20.53,12.67-13.77,7.8-28.02,14.83-41.72,22.77-22.1,12.8-43.48,26.13-62.38,43.49-14.27-30.22-36.02-56.02-54.39-83.73,26.4,1.14,48.39,16.95,73.15,23.57,28.37,7.58,52.06,4.01,78.9-6.75,9.16-3.67,17.49-9.13,26.96-12.01Z"></path><polygon class="cls-5" points="244.48 0 233.02 6.33 212.12 22.97 65.45 79.46 62.58 79.48 46.22 71.69 233.69 2.19 244.48 0"></polygon><path class="cls-3" d="M36.33,115.71c25.32-5.23,33.01,42.88,13.02,46.74-22.18,4.28-32.92-42.63-13.02-46.74Z"></path></svg>